<svg width="576" height="119" viewBox="0 0 576 119" fill="none" xmlns="http://www.w3.org/2000/svg">
<path d="M4.8 85.5869H17.34C18.27 95.4778 23.37 101.691 36.39 101.691C48.63 101.691 54.03 97.3942 54.03 88.4615C54.03 79.6833 47.67 76.8087 35.13 74.4287C14.07 70.4414 6.96 64.3833 6.96 49.856C6.96 34.3705 21.66 26.396 34.35 26.396C48.9 26.396 61.44 32.4542 63.6 50.4742H51.21C49.35 41.3869 44.4 37.3996 34.17 37.3996C24.87 37.3996 18.84 42.1905 18.84 49.3615C18.84 56.8724 22.86 59.9015 37.74 62.5905C54.45 65.7742 66.21 69.6069 66.21 87.3178C66.21 102.463 56.16 112.663 36.48 112.663C17.19 112.725 5.58 102.649 4.8 85.5869Z" fill="black"/>
<path d="M76.32 27.8486H90.24L109.14 94.9832L128.79 27.8486H139.95L158.37 94.9832L177.42 27.8486H190.59L165.33 111.272H151.08L134.22 48.7432L115.32 111.272H101.22L76.32 27.8486Z" fill="black"/>
<path d="M199.68 88.1522C199.68 68.8649 219.48 62.3122 240.24 62.3122H251.85V56.254C251.85 43.0249 246.9 37.4304 234.51 37.4304C223.35 37.4304 217.17 42.2213 215.94 52.4213H203.1C204.81 33.4431 219.51 26.4268 235.14 26.4268C250.62 26.4268 264.72 32.9795 264.72 56.254V111.272H251.88V100.763C245.85 108.583 238.56 112.725 226.65 112.725C211.62 112.725 199.68 105.214 199.68 88.1522ZM251.85 82.094V71.7086H240.69C224.43 71.7086 212.52 75.8504 212.52 88.1213C212.52 96.7449 216.54 102.154 227.85 102.154C241.47 102.185 251.85 95.014 251.85 82.094Z" fill="black"/>
<path d="M365.31 88.1522C365.31 68.8649 385.11 62.3122 405.87 62.3122H417.48V56.254C417.48 43.0249 412.53 37.4304 400.14 37.4304C388.98 37.4304 382.8 42.2213 381.57 52.4213H368.73C370.44 33.4431 385.14 26.4268 400.77 26.4268C416.25 26.4268 430.35 32.9795 430.35 56.254V111.272H417.51V100.763C411.48 108.583 404.19 112.725 392.28 112.725C377.25 112.725 365.31 105.214 365.31 88.1522ZM417.48 82.094V71.7086H406.32C390.06 71.7086 378.15 75.8504 378.15 88.1213C378.15 96.7449 382.17 102.154 393.48 102.154C407.13 102.185 417.48 95.014 417.48 82.094Z" fill="black"/>
<path d="M455.58 27.8486H468.42V40.614C472.14 32.794 480.96 26.4268 492.57 26.4268C502.95 26.4268 512.07 30.8777 516.24 42.0668C521.82 31.2177 533.88 26.4268 543.96 26.4268C558.51 26.4268 571.2 35.3595 571.2 59.5922V111.272H558.36V58.634C558.36 43.9522 552.33 37.894 541.17 37.894C530.64 37.894 519.81 45.2195 519.81 60.2104V111.272H506.97V58.634C506.97 43.9522 500.94 37.894 489.78 37.894C479.25 37.894 468.42 45.2195 468.42 60.2104V111.272H455.58V27.8486Z" fill="black"/>
<path d="M325.53 72.9144H312.15C312.15 47.2907 332.37 26.458 357.24 26.458V40.2435C339.75 40.2126 325.53 54.8944 325.53 72.9144Z" fill="black"/>
<path d="M325.53 72.4507H312.15V111.922H325.53V72.4507Z" fill="black"/>
<path d="M325.53 72.9144H312.15C312.15 54.8944 297.93 40.2435 280.44 40.2435V26.458C305.31 26.458 325.53 47.2907 325.53 72.9144Z" fill="black"/>
<path d="M318.84 26.4271C324.241 26.4271 328.62 21.9158 328.62 16.3508C328.62 10.7858 324.241 6.27441 318.84 6.27441C313.439 6.27441 309.06 10.7858 309.06 16.3508C309.06 21.9158 313.439 26.4271 318.84 26.4271Z" fill="black"/>
</svg>
